<svg width="84" height="75" viewBox="0 0 84 75" fill="none" xmlns="http://www.w3.org/2000/svg">
<g opacity="0.26">
<mask id="mask0_1_1273" style="mask-type:alpha" maskUnits="userSpaceOnUse" x="10" y="0" width="12" height="11">
<path d="M15.8791 10.224C18.8583 10.224 21.2735 7.975 21.2735 5.20082C21.2735 2.42664 18.8583 0.177734 15.8791 0.177734C12.8999 0.177734 10.4847 2.42664 10.4847 5.20082C10.4847 7.975 12.8999 10.224 15.8791 10.224Z" fill="url(#paint0_linear_1_1273)"/>
</mask>
<g mask="url(#mask0_1_1273)">
<path d="M15.8791 10.224C18.8583 10.224 21.2735 7.975 21.2735 5.20082C21.2735 2.42664 18.8583 0.177734 15.8791 0.177734C12.8999 0.177734 10.4847 2.42664 10.4847 5.20082C10.4847 7.975 12.8999 10.224 15.8791 10.224Z" fill="url(#paint1_linear_1_1273)"/>
</g>
<mask id="mask1_1_1273" style="mask-type:alpha" maskUnits="userSpaceOnUse" x="41" y="0" width="12" height="11">
<path d="M47.1216 10.224C50.1008 10.224 52.5159 7.975 52.5159 5.20082C52.5159 2.42664 50.1008 0.177734 47.1216 0.177734C44.1423 0.177734 41.7272 2.42664 41.7272 5.20082C41.7272 7.975 44.1423 10.224 47.1216 10.224Z" fill="url(#paint2_linear_1_1273)"/>
</mask>
<g mask="url(#mask1_1_1273)">
<path d="M47.1216 10.224C50.1008 10.224 52.5159 7.975 52.5159 5.20082C52.5159 2.42664 50.1008 0.177734 47.1216 0.177734C44.1423 0.177734 41.7272 2.42664 41.7272 5.20082C41.7272 7.975 44.1423 10.224 47.1216 10.224Z" fill="url(#paint3_linear_1_1273)"/>
</g>
<mask id="mask2_1_1273" style="mask-type:alpha" maskUnits="userSpaceOnUse" x="72" y="0" width="12" height="11">
<path d="M78.3638 10.224C81.3431 10.224 83.7582 7.975 83.7582 5.20082C83.7582 2.42664 81.3431 0.177734 78.3638 0.177734C75.3846 0.177734 72.9695 2.42664 72.9695 5.20082C72.9695 7.975 75.3846 10.224 78.3638 10.224Z" fill="url(#paint4_linear_1_1273)"/>
</mask>
<g mask="url(#mask2_1_1273)">
<path d="M78.3638 10.224C81.3431 10.224 83.7582 7.975 83.7582 5.20082C83.7582 2.42664 81.3431 0.177734 78.3638 0.177734C75.3846 0.177734 72.9695 2.42664 72.9695 5.20082C72.9695 7.975 75.3846 10.224 78.3638 10.224Z" fill="url(#paint5_linear_1_1273)"/>
</g>
<mask id="mask3_1_1273" style="mask-type:alpha" maskUnits="userSpaceOnUse" x="10" y="25" width="12" height="11">
<path d="M15.8791 35.4441C18.8583 35.4441 21.2735 33.1952 21.2735 30.421C21.2735 27.6468 18.8583 25.3979 15.8791 25.3979C12.8999 25.3979 10.4847 27.6468 10.4847 30.421C10.4847 33.1952 12.8999 35.4441 15.8791 35.4441Z" fill="url(#paint6_linear_1_1273)"/>
</mask>
<g mask="url(#mask3_1_1273)">
<path d="M15.8791 35.4441C18.8583 35.4441 21.2735 33.1952 21.2735 30.421C21.2735 27.6468 18.8583 25.3979 15.8791 25.3979C12.8999 25.3979 10.4847 27.6468 10.4847 30.421C10.4847 33.1952 12.8999 35.4441 15.8791 35.4441Z" fill="url(#paint7_linear_1_1273)"/>
</g>
<mask id="mask4_1_1273" style="mask-type:alpha" maskUnits="userSpaceOnUse" x="41" y="25" width="12" height="11">
<path d="M47.1216 35.4441C50.1008 35.4441 52.5159 33.1952 52.5159 30.421C52.5159 27.6468 50.1008 25.3979 47.1216 25.3979C44.1423 25.3979 41.7272 27.6468 41.7272 30.421C41.7272 33.1952 44.1423 35.4441 47.1216 35.4441Z" fill="url(#paint8_linear_1_1273)"/>
</mask>
<g mask="url(#mask4_1_1273)">
<path d="M47.1216 35.4441C50.1008 35.4441 52.5159 33.1952 52.5159 30.421C52.5159 27.6468 50.1008 25.3979 47.1216 25.3979C44.1423 25.3979 41.7272 27.6468 41.7272 30.421C41.7272 33.1952 44.1423 35.4441 47.1216 35.4441Z" fill="url(#paint9_linear_1_1273)"/>
</g>
<mask id="mask5_1_1273" style="mask-type:alpha" maskUnits="userSpaceOnUse" x="72" y="25" width="12" height="11">
<path d="M78.3638 35.4441C81.3431 35.4441 83.7582 33.1952 83.7582 30.421C83.7582 27.6468 81.3431 25.3979 78.3638 25.3979C75.3846 25.3979 72.9695 27.6468 72.9695 30.421C72.9695 33.1952 75.3846 35.4441 78.3638 35.4441Z" fill="url(#paint10_linear_1_1273)"/>
</mask>
<g mask="url(#mask5_1_1273)">
<path d="M78.3638 35.4441C81.3431 35.4441 83.7582 33.1952 83.7582 30.421C83.7582 27.6468 81.3431 25.3979 78.3638 25.3979C75.3846 25.3979 72.9695 27.6468 72.9695 30.421C72.9695 33.1952 75.3846 35.4441 78.3638 35.4441Z" fill="url(#paint11_linear_1_1273)"/>
</g>
<mask id="mask6_1_1273" style="mask-type:alpha" maskUnits="userSpaceOnUse" x="10" y="50" width="12" height="11">
<path d="M15.8791 60.6121C18.8583 60.6121 21.2735 58.3632 21.2735 55.589C21.2735 52.8148 18.8583 50.5659 15.8791 50.5659C12.8999 50.5659 10.4847 52.8148 10.4847 55.589C10.4847 58.3632 12.8999 60.6121 15.8791 60.6121Z" fill="url(#paint12_linear_1_1273)"/>
</mask>
<g mask="url(#mask6_1_1273)">
<path d="M15.8791 60.6121C18.8583 60.6121 21.2735 58.3632 21.2735 55.589C21.2735 52.8148 18.8583 50.5659 15.8791 50.5659C12.8999 50.5659 10.4847 52.8148 10.4847 55.589C10.4847 58.3632 12.8999 60.6121 15.8791 60.6121Z" fill="url(#paint13_linear_1_1273)"/>
</g>
<mask id="mask7_1_1273" style="mask-type:alpha" maskUnits="userSpaceOnUse" x="41" y="50" width="12" height="11">
<path d="M47.1216 60.6121C50.1008 60.6121 52.5159 58.3632 52.5159 55.589C52.5159 52.8148 50.1008 50.5659 47.1216 50.5659C44.1423 50.5659 41.7272 52.8148 41.7272 55.589C41.7272 58.3632 44.1423 60.6121 47.1216 60.6121Z" fill="url(#paint14_linear_1_1273)"/>
</mask>
<g mask="url(#mask7_1_1273)">
<path d="M47.1216 60.6121C50.1008 60.6121 52.5159 58.3632 52.5159 55.589C52.5159 52.8148 50.1008 50.5659 47.1216 50.5659C44.1423 50.5659 41.7272 52.8148 41.7272 55.589C41.7272 58.3632 44.1423 60.6121 47.1216 60.6121Z" fill="url(#paint15_linear_1_1273)"/>
</g>
<mask id="mask8_1_1273" style="mask-type:alpha" maskUnits="userSpaceOnUse" x="72" y="50" width="12" height="11">
<path d="M78.3638 60.6121C81.3431 60.6121 83.7582 58.3632 83.7582 55.589C83.7582 52.8148 81.3431 50.5659 78.3638 50.5659C75.3846 50.5659 72.9695 52.8148 72.9695 55.589C72.9695 58.3632 75.3846 60.6121 78.3638 60.6121Z" fill="url(#paint16_linear_1_1273)"/>
</mask>
<g mask="url(#mask8_1_1273)">
<path d="M78.3638 60.6121C81.3431 60.6121 83.7582 58.3632 83.7582 55.589C83.7582 52.8148 81.3431 50.5659 78.3638 50.5659C75.3846 50.5659 72.9695 52.8148 72.9695 55.589C72.9695 58.3632 75.3846 60.6121 78.3638 60.6121Z" fill="url(#paint17_linear_1_1273)"/>
</g>
</g>
<defs>
<linearGradient id="paint0_linear_1_1273" x1="67.2267" y1="126.548" x2="1.84405" y2="-51.6909" gradientUnits="userSpaceOnUse">
<stop stop-color="white"/>
<stop offset="1" stop-color="white"/>
</linearGradient>
<linearGradient id="paint1_linear_1_1273" x1="67.2267" y1="126.548" x2="1.84405" y2="-51.6909" gradientUnits="userSpaceOnUse">
<stop stop-color="white"/>
<stop offset="1" stop-color="white"/>
</linearGradient>
<linearGradient id="paint2_linear_1_1273" x1="98.4691" y1="126.548" x2="33.0865" y2="-51.6909" gradientUnits="userSpaceOnUse">
<stop stop-color="white"/>
<stop offset="1" stop-color="white"/>
</linearGradient>
<linearGradient id="paint3_linear_1_1273" x1="98.4691" y1="126.548" x2="33.0865" y2="-51.6909" gradientUnits="userSpaceOnUse">
<stop stop-color="white"/>
<stop offset="1" stop-color="white"/>
</linearGradient>
<linearGradient id="paint4_linear_1_1273" x1="129.711" y1="126.548" x2="64.3288" y2="-51.6909" gradientUnits="userSpaceOnUse">
<stop stop-color="white"/>
<stop offset="1" stop-color="white"/>
</linearGradient>
<linearGradient id="paint5_linear_1_1273" x1="129.711" y1="126.548" x2="64.3288" y2="-51.6909" gradientUnits="userSpaceOnUse">
<stop stop-color="white"/>
<stop offset="1" stop-color="white"/>
</linearGradient>
<linearGradient id="paint6_linear_1_1273" x1="67.2267" y1="151.767" x2="1.84519" y2="-26.4706" gradientUnits="userSpaceOnUse">
<stop stop-color="white"/>
<stop offset="1" stop-color="white"/>
</linearGradient>
<linearGradient id="paint7_linear_1_1273" x1="67.2267" y1="151.767" x2="1.84519" y2="-26.4706" gradientUnits="userSpaceOnUse">
<stop stop-color="white"/>
<stop offset="1" stop-color="white"/>
</linearGradient>
<linearGradient id="paint8_linear_1_1273" x1="98.4691" y1="151.767" x2="33.0876" y2="-26.4706" gradientUnits="userSpaceOnUse">
<stop stop-color="white"/>
<stop offset="1" stop-color="white"/>
</linearGradient>
<linearGradient id="paint9_linear_1_1273" x1="98.4691" y1="151.767" x2="33.0876" y2="-26.4706" gradientUnits="userSpaceOnUse">
<stop stop-color="white"/>
<stop offset="1" stop-color="white"/>
</linearGradient>
<linearGradient id="paint10_linear_1_1273" x1="129.711" y1="151.767" x2="64.3299" y2="-26.4706" gradientUnits="userSpaceOnUse">
<stop stop-color="white"/>
<stop offset="1" stop-color="white"/>
</linearGradient>
<linearGradient id="paint11_linear_1_1273" x1="129.711" y1="151.767" x2="64.3299" y2="-26.4706" gradientUnits="userSpaceOnUse">
<stop stop-color="white"/>
<stop offset="1" stop-color="white"/>
</linearGradient>
<linearGradient id="paint12_linear_1_1273" x1="67.2267" y1="176.936" x2="1.84405" y2="-1.30275" gradientUnits="userSpaceOnUse">
<stop stop-color="white"/>
<stop offset="1" stop-color="white"/>
</linearGradient>
<linearGradient id="paint13_linear_1_1273" x1="67.2267" y1="176.936" x2="1.84405" y2="-1.30275" gradientUnits="userSpaceOnUse">
<stop stop-color="white"/>
<stop offset="1" stop-color="white"/>
</linearGradient>
<linearGradient id="paint14_linear_1_1273" x1="98.4691" y1="176.936" x2="33.0865" y2="-1.30275" gradientUnits="userSpaceOnUse">
<stop stop-color="white"/>
<stop offset="1" stop-color="white"/>
</linearGradient>
<linearGradient id="paint15_linear_1_1273" x1="98.4691" y1="176.936" x2="33.0865" y2="-1.30275" gradientUnits="userSpaceOnUse">
<stop stop-color="white"/>
<stop offset="1" stop-color="white"/>
</linearGradient>
<linearGradient id="paint16_linear_1_1273" x1="129.711" y1="176.936" x2="64.3288" y2="-1.30275" gradientUnits="userSpaceOnUse">
<stop stop-color="white"/>
<stop offset="1" stop-color="white"/>
</linearGradient>
<linearGradient id="paint17_linear_1_1273" x1="129.711" y1="176.936" x2="64.3288" y2="-1.30275" gradientUnits="userSpaceOnUse">
<stop stop-color="white"/>
<stop offset="1" stop-color="white"/>
</linearGradient>
</defs>
</svg>
