<svg width="67" height="115" viewBox="0 0 67 115" fill="none" xmlns="http://www.w3.org/2000/svg">
<g opacity="0.3">
<mask id="mask0_1_1671" style="mask-type:alpha" maskUnits="userSpaceOnUse" x="0" y="0" width="11" height="11">
<path d="M5.22838 10.425C8.11594 10.425 10.4568 8.09121 10.4568 5.21245C10.4568 2.33368 8.11594 0 5.22838 0C2.34082 0 0 2.33368 0 5.21245C0 8.09121 2.34082 10.425 5.22838 10.425Z" fill="url(#paint0_linear_1_1671)"/>
</mask>
<g mask="url(#mask0_1_1671)">
<path d="M5.22838 10.425C8.11594 10.425 10.4568 8.09121 10.4568 5.21245C10.4568 2.33368 8.11594 0 5.22838 0C2.34082 0 0 2.33368 0 5.21245C0 8.09121 2.34082 10.425 5.22838 10.425Z" fill="url(#paint1_linear_1_1671)"/>
</g>
<mask id="mask1_1_1671" style="mask-type:alpha" maskUnits="userSpaceOnUse" x="30" y="0" width="11" height="11">
<path d="M35.5094 10.425C38.397 10.425 40.7378 8.09121 40.7378 5.21245C40.7378 2.33368 38.397 0 35.5094 0C32.6219 0 30.2811 2.33368 30.2811 5.21245C30.2811 8.09121 32.6219 10.425 35.5094 10.425Z" fill="url(#paint2_linear_1_1671)"/>
</mask>
<g mask="url(#mask1_1_1671)">
<path d="M35.5094 10.425C38.397 10.425 40.7378 8.09121 40.7378 5.21245C40.7378 2.33368 38.397 0 35.5094 0C32.6219 0 30.2811 2.33368 30.2811 5.21245C30.2811 8.09121 32.6219 10.425 35.5094 10.425Z" fill="url(#paint3_linear_1_1671)"/>
</g>
<mask id="mask2_1_1671" style="mask-type:alpha" maskUnits="userSpaceOnUse" x="60" y="0" width="12" height="11">
<path d="M65.7905 10.425C68.6781 10.425 71.0189 8.09121 71.0189 5.21245C71.0189 2.33368 68.6781 0 65.7905 0C62.9029 0 60.5621 2.33368 60.5621 5.21245C60.5621 8.09121 62.9029 10.425 65.7905 10.425Z" fill="url(#paint4_linear_1_1671)"/>
</mask>
<g mask="url(#mask2_1_1671)">
<path d="M65.7905 10.425C68.6781 10.425 71.0189 8.09121 71.0189 5.21245C71.0189 2.33368 68.6781 0 65.7905 0C62.9029 0 60.5621 2.33368 60.5621 5.21245C60.5621 8.09121 62.9029 10.425 65.7905 10.425Z" fill="url(#paint5_linear_1_1671)"/>
</g>
<mask id="mask3_1_1671" style="mask-type:alpha" maskUnits="userSpaceOnUse" x="0" y="26" width="11" height="11">
<path d="M5.22838 36.5958C8.11594 36.5958 10.4568 34.2621 10.4568 31.3834C10.4568 28.5046 8.11594 26.171 5.22838 26.171C2.34082 26.171 0 28.5046 0 31.3834C0 34.2621 2.34082 36.5958 5.22838 36.5958Z" fill="url(#paint6_linear_1_1671)"/>
</mask>
<g mask="url(#mask3_1_1671)">
<path d="M5.22838 36.5958C8.11594 36.5958 10.4568 34.2621 10.4568 31.3834C10.4568 28.5046 8.11594 26.171 5.22838 26.171C2.34082 26.171 0 28.5046 0 31.3834C0 34.2621 2.34082 36.5958 5.22838 36.5958Z" fill="url(#paint7_linear_1_1671)"/>
</g>
<mask id="mask4_1_1671" style="mask-type:alpha" maskUnits="userSpaceOnUse" x="30" y="26" width="11" height="11">
<path d="M35.5094 36.5958C38.397 36.5958 40.7378 34.2621 40.7378 31.3834C40.7378 28.5046 38.397 26.171 35.5094 26.171C32.6219 26.171 30.2811 28.5046 30.2811 31.3834C30.2811 34.2621 32.6219 36.5958 35.5094 36.5958Z" fill="url(#paint8_linear_1_1671)"/>
</mask>
<g mask="url(#mask4_1_1671)">
<path d="M35.5094 36.5958C38.397 36.5958 40.7378 34.2621 40.7378 31.3834C40.7378 28.5046 38.397 26.171 35.5094 26.171C32.6219 26.171 30.2811 28.5046 30.2811 31.3834C30.2811 34.2621 32.6219 36.5958 35.5094 36.5958Z" fill="url(#paint9_linear_1_1671)"/>
</g>
<mask id="mask5_1_1671" style="mask-type:alpha" maskUnits="userSpaceOnUse" x="60" y="26" width="12" height="11">
<path d="M65.7905 36.5958C68.6781 36.5958 71.0189 34.2621 71.0189 31.3834C71.0189 28.5046 68.6781 26.171 65.7905 26.171C62.9029 26.171 60.5621 28.5046 60.5621 31.3834C60.5621 34.2621 62.9029 36.5958 65.7905 36.5958Z" fill="url(#paint10_linear_1_1671)"/>
</mask>
<g mask="url(#mask5_1_1671)">
<path d="M65.7905 36.5958C68.6781 36.5958 71.0189 34.2621 71.0189 31.3834C71.0189 28.5046 68.6781 26.171 65.7905 26.171C62.9029 26.171 60.5621 28.5046 60.5621 31.3834C60.5621 34.2621 62.9029 36.5958 65.7905 36.5958Z" fill="url(#paint11_linear_1_1671)"/>
</g>
<mask id="mask6_1_1671" style="mask-type:alpha" maskUnits="userSpaceOnUse" x="0" y="52" width="11" height="11">
<path d="M5.22838 62.7125C8.11594 62.7125 10.4568 60.3788 10.4568 57.5C10.4568 54.6212 8.11594 52.2875 5.22838 52.2875C2.34082 52.2875 0 54.6212 0 57.5C0 60.3788 2.34082 62.7125 5.22838 62.7125Z" fill="url(#paint12_linear_1_1671)"/>
</mask>
<g mask="url(#mask6_1_1671)">
<path d="M5.22838 62.7125C8.11594 62.7125 10.4568 60.3788 10.4568 57.5C10.4568 54.6212 8.11594 52.2875 5.22838 52.2875C2.34082 52.2875 0 54.6212 0 57.5C0 60.3788 2.34082 62.7125 5.22838 62.7125Z" fill="url(#paint13_linear_1_1671)"/>
</g>
<mask id="mask7_1_1671" style="mask-type:alpha" maskUnits="userSpaceOnUse" x="30" y="52" width="11" height="11">
<path d="M35.5094 62.7125C38.397 62.7125 40.7378 60.3788 40.7378 57.5C40.7378 54.6212 38.397 52.2875 35.5094 52.2875C32.6219 52.2875 30.2811 54.6212 30.2811 57.5C30.2811 60.3788 32.6219 62.7125 35.5094 62.7125Z" fill="url(#paint14_linear_1_1671)"/>
</mask>
<g mask="url(#mask7_1_1671)">
<path d="M35.5094 62.7125C38.397 62.7125 40.7378 60.3788 40.7378 57.5C40.7378 54.6212 38.397 52.2875 35.5094 52.2875C32.6219 52.2875 30.2811 54.6212 30.2811 57.5C30.2811 60.3788 32.6219 62.7125 35.5094 62.7125Z" fill="url(#paint15_linear_1_1671)"/>
</g>
<mask id="mask8_1_1671" style="mask-type:alpha" maskUnits="userSpaceOnUse" x="60" y="52" width="12" height="11">
<path d="M65.7905 62.7125C68.6781 62.7125 71.0189 60.3788 71.0189 57.5C71.0189 54.6212 68.6781 52.2875 65.7905 52.2875C62.9029 52.2875 60.5621 54.6212 60.5621 57.5C60.5621 60.3788 62.9029 62.7125 65.7905 62.7125Z" fill="url(#paint16_linear_1_1671)"/>
</mask>
<g mask="url(#mask8_1_1671)">
<path d="M65.7905 62.7125C68.6781 62.7125 71.0189 60.3788 71.0189 57.5C71.0189 54.6212 68.6781 52.2875 65.7905 52.2875C62.9029 52.2875 60.5621 54.6212 60.5621 57.5C60.5621 60.3788 62.9029 62.7125 65.7905 62.7125Z" fill="url(#paint17_linear_1_1671)"/>
</g>
<mask id="mask9_1_1671" style="mask-type:alpha" maskUnits="userSpaceOnUse" x="0" y="78" width="11" height="11">
<path d="M5.22838 88.8834C8.11594 88.8834 10.4568 86.5496 10.4568 83.6709C10.4568 80.7921 8.11594 78.4584 5.22838 78.4584C2.34082 78.4584 0 80.7921 0 83.6709C0 86.5496 2.34082 88.8834 5.22838 88.8834Z" fill="url(#paint18_linear_1_1671)"/>
</mask>
<g mask="url(#mask9_1_1671)">
<path d="M5.22838 88.8834C8.11594 88.8834 10.4568 86.5496 10.4568 83.6709C10.4568 80.7921 8.11594 78.4584 5.22838 78.4584C2.34082 78.4584 0 80.7921 0 83.6709C0 86.5496 2.34082 88.8834 5.22838 88.8834Z" fill="url(#paint19_linear_1_1671)"/>
</g>
<mask id="mask10_1_1671" style="mask-type:alpha" maskUnits="userSpaceOnUse" x="30" y="78" width="11" height="11">
<path d="M35.5094 88.8834C38.397 88.8834 40.7378 86.5496 40.7378 83.6709C40.7378 80.7921 38.397 78.4584 35.5094 78.4584C32.6219 78.4584 30.2811 80.7921 30.2811 83.6709C30.2811 86.5496 32.6219 88.8834 35.5094 88.8834Z" fill="url(#paint20_linear_1_1671)"/>
</mask>
<g mask="url(#mask10_1_1671)">
<path d="M35.5094 88.8834C38.397 88.8834 40.7378 86.5496 40.7378 83.6709C40.7378 80.7921 38.397 78.4584 35.5094 78.4584C32.6219 78.4584 30.2811 80.7921 30.2811 83.6709C30.2811 86.5496 32.6219 88.8834 35.5094 88.8834Z" fill="url(#paint21_linear_1_1671)"/>
</g>
<mask id="mask11_1_1671" style="mask-type:alpha" maskUnits="userSpaceOnUse" x="60" y="78" width="12" height="11">
<path d="M65.7905 88.8834C68.6781 88.8834 71.0189 86.5496 71.0189 83.6709C71.0189 80.7921 68.6781 78.4584 65.7905 78.4584C62.9029 78.4584 60.5621 80.7921 60.5621 83.6709C60.5621 86.5496 62.9029 88.8834 65.7905 88.8834Z" fill="url(#paint22_linear_1_1671)"/>
</mask>
<g mask="url(#mask11_1_1671)">
<path d="M65.7905 88.8834C68.6781 88.8834 71.0189 86.5496 71.0189 83.6709C71.0189 80.7921 68.6781 78.4584 65.7905 78.4584C62.9029 78.4584 60.5621 80.7921 60.5621 83.6709C60.5621 86.5496 62.9029 88.8834 65.7905 88.8834Z" fill="url(#paint23_linear_1_1671)"/>
</g>
<mask id="mask12_1_1671" style="mask-type:alpha" maskUnits="userSpaceOnUse" x="0" y="104" width="11" height="11">
<path d="M5.22838 115C8.11594 115 10.4568 112.666 10.4568 109.788C10.4568 106.909 8.11594 104.575 5.22838 104.575C2.34082 104.575 0 106.909 0 109.788C0 112.666 2.34082 115 5.22838 115Z" fill="url(#paint24_linear_1_1671)"/>
</mask>
<g mask="url(#mask12_1_1671)">
<path d="M5.22838 115C8.11594 115 10.4568 112.666 10.4568 109.788C10.4568 106.909 8.11594 104.575 5.22838 104.575C2.34082 104.575 0 106.909 0 109.788C0 112.666 2.34082 115 5.22838 115Z" fill="url(#paint25_linear_1_1671)"/>
</g>
<mask id="mask13_1_1671" style="mask-type:alpha" maskUnits="userSpaceOnUse" x="30" y="104" width="11" height="11">
<path d="M35.5094 115C38.397 115 40.7378 112.666 40.7378 109.788C40.7378 106.909 38.397 104.575 35.5094 104.575C32.6219 104.575 30.2811 106.909 30.2811 109.788C30.2811 112.666 32.6219 115 35.5094 115Z" fill="url(#paint26_linear_1_1671)"/>
</mask>
<g mask="url(#mask13_1_1671)">
<path d="M35.5094 115C38.397 115 40.7378 112.666 40.7378 109.788C40.7378 106.909 38.397 104.575 35.5094 104.575C32.6219 104.575 30.2811 106.909 30.2811 109.788C30.2811 112.666 32.6219 115 35.5094 115Z" fill="url(#paint27_linear_1_1671)"/>
</g>
<mask id="mask14_1_1671" style="mask-type:alpha" maskUnits="userSpaceOnUse" x="60" y="104" width="12" height="11">
<path d="M65.7905 115C68.6781 115 71.0189 112.666 71.0189 109.788C71.0189 106.909 68.6781 104.575 65.7905 104.575C62.9029 104.575 60.5621 106.909 60.5621 109.788C60.5621 112.666 62.9029 115 65.7905 115Z" fill="url(#paint28_linear_1_1671)"/>
</mask>
<g mask="url(#mask14_1_1671)">
<path d="M65.7905 115C68.6781 115 71.0189 112.666 71.0189 109.788C71.0189 106.909 68.6781 104.575 65.7905 104.575C62.9029 104.575 60.5621 106.909 60.5621 109.788C60.5621 112.666 62.9029 115 65.7905 115Z" fill="url(#paint29_linear_1_1671)"/>
</g>
</g>
<defs>
<linearGradient id="paint0_linear_1_1671" x1="54.996" y1="131.134" x2="-16.4057" y2="-50.67" gradientUnits="userSpaceOnUse">
<stop/>
<stop offset="1" stop-color="white"/>
</linearGradient>
<linearGradient id="paint1_linear_1_1671" x1="54.996" y1="131.134" x2="-16.4057" y2="-50.67" gradientUnits="userSpaceOnUse">
<stop stop-color="#97C3F9"/>
<stop offset="1" stop-color="#93C1F9"/>
</linearGradient>
<linearGradient id="paint2_linear_1_1671" x1="81.2005" y1="120.843" x2="9.79887" y2="-60.9613" gradientUnits="userSpaceOnUse">
<stop/>
<stop offset="1" stop-color="white"/>
</linearGradient>
<linearGradient id="paint3_linear_1_1671" x1="81.2005" y1="120.843" x2="9.79887" y2="-60.9613" gradientUnits="userSpaceOnUse">
<stop stop-color="#97C3F9"/>
<stop offset="1" stop-color="#93C1F9"/>
</linearGradient>
<linearGradient id="paint4_linear_1_1671" x1="107.405" y1="110.551" x2="36.0033" y2="-71.2526" gradientUnits="userSpaceOnUse">
<stop/>
<stop offset="1" stop-color="white"/>
</linearGradient>
<linearGradient id="paint5_linear_1_1671" x1="107.405" y1="110.551" x2="36.0033" y2="-71.2526" gradientUnits="userSpaceOnUse">
<stop stop-color="#97C3F9"/>
<stop offset="1" stop-color="#93C1F9"/>
</linearGradient>
<linearGradient id="paint6_linear_1_1671" x1="46.0538" y1="134.645" x2="-25.3466" y2="-47.1571" gradientUnits="userSpaceOnUse">
<stop/>
<stop offset="1" stop-color="white"/>
</linearGradient>
<linearGradient id="paint7_linear_1_1671" x1="46.0538" y1="134.645" x2="-25.3466" y2="-47.1571" gradientUnits="userSpaceOnUse">
<stop stop-color="#97C3F9"/>
<stop offset="1" stop-color="#93C1F9"/>
</linearGradient>
<linearGradient id="paint8_linear_1_1671" x1="72.2581" y1="124.354" x2="0.857702" y2="-57.449" gradientUnits="userSpaceOnUse">
<stop/>
<stop offset="1" stop-color="white"/>
</linearGradient>
<linearGradient id="paint9_linear_1_1671" x1="72.2581" y1="124.354" x2="0.857702" y2="-57.449" gradientUnits="userSpaceOnUse">
<stop stop-color="#97C3F9"/>
<stop offset="1" stop-color="#93C1F9"/>
</linearGradient>
<linearGradient id="paint10_linear_1_1671" x1="98.4624" y1="114.062" x2="27.062" y2="-67.7403" gradientUnits="userSpaceOnUse">
<stop/>
<stop offset="1" stop-color="white"/>
</linearGradient>
<linearGradient id="paint11_linear_1_1671" x1="98.4624" y1="114.062" x2="27.062" y2="-67.7403" gradientUnits="userSpaceOnUse">
<stop stop-color="#97C3F9"/>
<stop offset="1" stop-color="#93C1F9"/>
</linearGradient>
<linearGradient id="paint12_linear_1_1671" x1="37.1113" y1="138.158" x2="-34.2903" y2="-43.6458" gradientUnits="userSpaceOnUse">
<stop/>
<stop offset="1" stop-color="white"/>
</linearGradient>
<linearGradient id="paint13_linear_1_1671" x1="37.1113" y1="138.158" x2="-34.2903" y2="-43.6458" gradientUnits="userSpaceOnUse">
<stop stop-color="#97C3F9"/>
<stop offset="1" stop-color="#93C1F9"/>
</linearGradient>
<linearGradient id="paint14_linear_1_1671" x1="63.3157" y1="127.866" x2="-8.08592" y2="-53.9374" gradientUnits="userSpaceOnUse">
<stop/>
<stop offset="1" stop-color="white"/>
</linearGradient>
<linearGradient id="paint15_linear_1_1671" x1="63.3157" y1="127.866" x2="-8.08592" y2="-53.9374" gradientUnits="userSpaceOnUse">
<stop stop-color="#97C3F9"/>
<stop offset="1" stop-color="#93C1F9"/>
</linearGradient>
<linearGradient id="paint16_linear_1_1671" x1="89.52" y1="117.575" x2="18.1185" y2="-64.2288" gradientUnits="userSpaceOnUse">
<stop/>
<stop offset="1" stop-color="white"/>
</linearGradient>
<linearGradient id="paint17_linear_1_1671" x1="89.52" y1="117.575" x2="18.1185" y2="-64.2288" gradientUnits="userSpaceOnUse">
<stop stop-color="#97C3F9"/>
<stop offset="1" stop-color="#93C1F9"/>
</linearGradient>
<linearGradient id="paint18_linear_1_1671" x1="28.169" y1="141.67" x2="-43.2327" y2="-40.1338" gradientUnits="userSpaceOnUse">
<stop/>
<stop offset="1" stop-color="white"/>
</linearGradient>
<linearGradient id="paint19_linear_1_1671" x1="28.169" y1="141.67" x2="-43.2327" y2="-40.1338" gradientUnits="userSpaceOnUse">
<stop stop-color="#97C3F9"/>
<stop offset="1" stop-color="#93C1F9"/>
</linearGradient>
<linearGradient id="paint20_linear_1_1671" x1="54.3734" y1="131.379" x2="-17.0283" y2="-50.4253" gradientUnits="userSpaceOnUse">
<stop/>
<stop offset="1" stop-color="white"/>
</linearGradient>
<linearGradient id="paint21_linear_1_1671" x1="54.3734" y1="131.379" x2="-17.0283" y2="-50.4253" gradientUnits="userSpaceOnUse">
<stop stop-color="#97C3F9"/>
<stop offset="1" stop-color="#93C1F9"/>
</linearGradient>
<linearGradient id="paint22_linear_1_1671" x1="80.5776" y1="121.087" x2="9.17606" y2="-60.7168" gradientUnits="userSpaceOnUse">
<stop/>
<stop offset="1" stop-color="white"/>
</linearGradient>
<linearGradient id="paint23_linear_1_1671" x1="80.5776" y1="121.087" x2="9.17606" y2="-60.7168" gradientUnits="userSpaceOnUse">
<stop stop-color="#97C3F9"/>
<stop offset="1" stop-color="#93C1F9"/>
</linearGradient>
<linearGradient id="paint24_linear_1_1671" x1="19.2266" y1="145.182" x2="-52.1751" y2="-36.6219" gradientUnits="userSpaceOnUse">
<stop/>
<stop offset="1" stop-color="white"/>
</linearGradient>
<linearGradient id="paint25_linear_1_1671" x1="19.2266" y1="145.182" x2="-52.1751" y2="-36.6219" gradientUnits="userSpaceOnUse">
<stop stop-color="#97C3F9"/>
<stop offset="1" stop-color="#93C1F9"/>
</linearGradient>
<linearGradient id="paint26_linear_1_1671" x1="45.431" y1="134.89" x2="-25.9707" y2="-46.9134" gradientUnits="userSpaceOnUse">
<stop/>
<stop offset="1" stop-color="white"/>
</linearGradient>
<linearGradient id="paint27_linear_1_1671" x1="45.431" y1="134.89" x2="-25.9707" y2="-46.9134" gradientUnits="userSpaceOnUse">
<stop stop-color="#97C3F9"/>
<stop offset="1" stop-color="#93C1F9"/>
</linearGradient>
<linearGradient id="paint28_linear_1_1671" x1="71.6353" y1="124.599" x2="0.233718" y2="-57.2047" gradientUnits="userSpaceOnUse">
<stop/>
<stop offset="1" stop-color="white"/>
</linearGradient>
<linearGradient id="paint29_linear_1_1671" x1="71.6353" y1="124.599" x2="0.233718" y2="-57.2047" gradientUnits="userSpaceOnUse">
<stop stop-color="#97C3F9"/>
<stop offset="1" stop-color="#93C1F9"/>
</linearGradient>
</defs>
</svg>
